<?xml version="1.0" encoding="UTF-8"?>
<svg xmlns="http://www.w3.org/2000/svg" style="display:none" aria-hidden="true">
<symbol id="icon-peaceful" viewBox="0 0 24 24"><!-- @license lucide-static v1.52.0 - ISC -->

  <path d="M11 20a10 10 0 0010-10 25.9 25.9 0 00-1.04-7.281 1 1 0 00-1.755-.325C15.833 5.5 13 5.5 9.8 6.1A7 7 0 0011 20" />
  <path d="M2 21a5 5 0 012.911-4.544C7.613 15.212 8.351 15.24 11 13" /></symbol>
<symbol id="icon-adventure" viewBox="0 0 24 24"><!-- @license lucide-static v1.52.0 - ISC -->

  <path d="m8 3 4 8 5-5 5 15H2L8 3z" /></symbol>
<symbol id="icon-cultural" viewBox="0 0 24 24"><!-- @license lucide-static v1.52.0 - ISC -->

  <path d="M10 18v-7" />
  <path d="M11.119 2.205a2 2 0 0 1 1.762 0l7.84 3.846A.5.5 0 0 1 20.5 7h-17a.5.5 0 0 1-.22-.949z" />
  <path d="M14 18v-7" />
  <path d="M18 18v-7" />
  <path d="M3 22h18" />
  <path d="M6 18v-7" /></symbol>
<symbol id="icon-social" viewBox="0 0 24 24"><!-- @license lucide-static v1.52.0 - ISC -->

  <path d="M16 21v-2a4 4 0 0 0-4-4H6a4 4 0 0 0-4 4v2" />
  <path d="M16 3.128a4 4 0 0 1 0 7.744" />
  <path d="M22 21v-2a4 4 0 0 0-3-3.87" />
  <circle cx="9" cy="7" r="4" /></symbol>
<symbol id="icon-photography" viewBox="0 0 24 24"><!-- @license lucide-static v1.52.0 - ISC -->

  <path d="M13.997 4a2 2 0 0 1 1.76 1.05l.486.9A2 2 0 0 0 18.003 7H20a2 2 0 0 1 2 2v9a2 2 0 0 1-2 2H4a2 2 0 0 1-2-2V9a2 2 0 0 1 2-2h1.997a2 2 0 0 0 1.759-1.048l.489-.904A2 2 0 0 1 10.004 4z" />
  <circle cx="12" cy="13" r="3" /></symbol>
<symbol id="icon-hiking" viewBox="0 0 24 24"><!-- @license lucide-static v1.52.0 - ISC -->

  <path d="M4 16v-2.38C4 11.5 2.97 10.5 3 8c.03-2.72 1.49-6 4.5-6C9.37 2 10 3.8 10 5.5c0 3.11-2 5.66-2 8.68V16a2 2 0 1 1-4 0Z" />
  <path d="M20 20v-2.38c0-2.12 1.03-3.12 1-5.62-.03-2.72-1.49-6-4.5-6C14.63 6 14 7.8 14 9.5c0 3.11 2 5.66 2 8.68V20a2 2 0 1 0 4 0Z" />
  <path d="M16 17h4" />
  <path d="M4 13h4" /></symbol>
<symbol id="icon-boating" viewBox="0 0 24 24"><!-- @license lucide-static v1.52.0 - ISC -->

  <path d="M10 2v15" />
  <path d="M7 22a4 4 0 0 1-4-4 1 1 0 0 1 1-1h16a1 1 0 0 1 1 1 4 4 0 0 1-4 4z" />
  <path d="M9.159 2.46a1 1 0 0 1 1.521-.193l9.977 8.98A1 1 0 0 1 20 13H4a1 1 0 0 1-.824-1.567z" /></symbol>
<symbol id="icon-food" viewBox="0 0 24 24"><!-- @license lucide-static v1.52.0 - ISC -->

  <path d="M3 2v7c0 1.1.9 2 2 2h4a2 2 0 0 0 2-2V2" />
  <path d="M7 2v20" />
  <path d="M21 15V2a5 5 0 0 0-5 5v6c0 1.1.9 2 2 2h3Zm0 0v7" /></symbol>
<symbol id="icon-history" viewBox="0 0 24 24"><!-- @license lucide-static v1.52.0 - ISC -->

  <path d="M12 5v16" />
  <path d="M20.001 19A2 2 0 0022 17V5a2 2 0 00-1.999-2L16 3.002A5 5 0 0012 5a5 5 0 00-4-2H4a2 2 0 00-2 2v12a2 2 0 001.999 2H8a5 5 0 014 2 5 5 0 014-2z" /></symbol>
<symbol id="icon-beach" viewBox="0 0 24 24"><!-- @license lucide-static v1.52.0 - ISC -->

  <path d="M13 8c0-2.76-2.46-5-5.5-5S2 5.24 2 8h2l1-1 1 1h4" />
  <path d="M13 7.14A5.82 5.82 0 0 1 16.5 6c3.04 0 5.5 2.24 5.5 5h-3l-1-1-1 1h-3" />
  <path d="M5.89 9.71c-2.15 2.15-2.3 5.47-.35 7.43l4.24-4.25.7-.7.71-.71 2.12-2.12c-1.95-1.96-5.27-1.8-7.42.35" />
  <path d="M11 15.5c.5 2.5-.17 4.5-1 6.5h4c2-5.5-.5-12-1-14" /></symbol>
<symbol id="icon-wildlife" viewBox="0 0 24 24"><!-- @license lucide-static v1.52.0 - ISC -->

  <path d="M16 7h.01" />
  <path d="M3.4 18H12a8 8 0 0 0 8-8V7a4 4 0 0 0-7.28-2.3L2 20" />
  <path d="m20 7 2 .5-2 .5" />
  <path d="M10 18v3" />
  <path d="M14 17.75V21" />
  <path d="M7 18a6 6 0 0 0 3.84-10.61" /></symbol>
<symbol id="icon-relaxing" viewBox="0 0 24 24"><!-- @license lucide-static v1.52.0 - ISC -->

  <path d="M10 2v2" />
  <path d="M14 2v2" />
  <path d="M16 8a1 1 0 0 1 1 1v8a4 4 0 0 1-4 4H7a4 4 0 0 1-4-4V9a1 1 0 0 1 1-1h14a4 4 0 1 1 0 8h-1" />
  <path d="M6 2v2" /></symbol>
<symbol id="icon-map-pin" viewBox="0 0 24 24"><!-- @license lucide-static v1.52.0 - ISC -->

  <path d="M20 10c0 4.993-5.539 10.193-7.399 11.799a1 1 0 0 1-1.202 0C9.539 20.193 4 14.993 4 10a8 8 0 0 1 16 0" />
  <circle cx="12" cy="10" r="3" /></symbol>
<symbol id="icon-clock" viewBox="0 0 24 24"><!-- @license lucide-static v1.52.0 - ISC -->

  <circle cx="12" cy="12" r="10" />
  <path d="M12 6v6l4 2" /></symbol>
<symbol id="icon-wallet" viewBox="0 0 24 24"><!-- @license lucide-static v1.52.0 - ISC -->

  <path d="M19 7V4a1 1 0 0 0-1-1H5a2 2 0 0 0 0 4h15a1 1 0 0 1 1 1v4h-3a2 2 0 0 0 0 4h3a1 1 0 0 0 1-1v-2a1 1 0 0 0-1-1" />
  <path d="M3 5v14a2 2 0 0 0 2 2h15a1 1 0 0 0 1-1v-4" /></symbol>
<symbol id="icon-calendar" viewBox="0 0 24 24"><!-- @license lucide-static v1.52.0 - ISC -->

  <path d="M8 2v3" />
  <path d="M16 2v3" />
  <rect x="3" y="3" width="18" height="18" rx="2" />
  <path d="M3 9h18" /></symbol>
<symbol id="icon-share" viewBox="0 0 24 24"><!-- @license lucide-static v1.52.0 - ISC -->

  <circle cx="18" cy="5" r="3" />
  <circle cx="6" cy="12" r="3" />
  <circle cx="18" cy="19" r="3" />
  <line x1="8.59" x2="15.42" y1="13.51" y2="17.49" />
  <line x1="15.41" x2="8.59" y1="6.51" y2="10.49" /></symbol>
<symbol id="icon-compare" viewBox="0 0 24 24"><!-- @license lucide-static v1.52.0 - ISC -->

  <circle cx="18" cy="18" r="3" />
  <circle cx="6" cy="6" r="3" />
  <path d="M13 6h3a2 2 0 0 1 2 2v7" />
  <path d="M11 18H8a2 2 0 0 1-2-2V9" /></symbol>
<symbol id="icon-info" viewBox="0 0 24 24"><!-- @license lucide-static v1.52.0 - ISC -->

  <circle cx="12" cy="12" r="10" />
  <path d="M12 16v-4" />
  <path d="M12 8h.01" /></symbol>
<symbol id="icon-warning" viewBox="0 0 24 24"><!-- @license lucide-static v1.52.0 - ISC -->

  <path d="m21.73 18-8-14a2 2 0 0 0-3.48 0l-8 14A2 2 0 0 0 4 21h16a2 2 0 0 0 1.73-3" />
  <path d="M12 9v4" />
  <path d="M12 17h.01" /></symbol>
<symbol id="icon-language" viewBox="0 0 24 24"><!-- @license lucide-static v1.52.0 - ISC -->

  <path d="m5 8 6 6" />
  <path d="m4 14 6-6 2-3" />
  <path d="M2 5h12" />
  <path d="M7 2h1" />
  <path d="m22 22-5-10-5 10" />
  <path d="M14 18h6" /></symbol>
<symbol id="icon-sun" viewBox="0 0 24 24"><!-- @license lucide-static v1.52.0 - ISC -->

  <circle cx="12" cy="12" r="4" />
  <path d="M12 2v2" />
  <path d="M12 20v2" />
  <path d="m4.93 4.93 1.41 1.41" />
  <path d="m17.66 17.66 1.41 1.41" />
  <path d="M2 12h2" />
  <path d="M20 12h2" />
  <path d="m6.34 17.66-1.41 1.41" />
  <path d="m19.07 4.93-1.41 1.41" /></symbol>
<symbol id="icon-moon" viewBox="0 0 24 24"><!-- @license lucide-static v1.52.0 - ISC -->

  <path d="M20.985 12.486a9 9 0 1 1-9.473-9.472c.405-.022.617.46.402.803a6 6 0 0 0 8.268 8.268c.344-.215.825-.004.803.401" /></symbol>
<symbol id="icon-cloud" viewBox="0 0 24 24"><!-- @license lucide-static v1.52.0 - ISC -->

  <path d="M17.5 19H9a7 7 0 1 1 6.71-9h1.79a4.5 4.5 0 1 1 0 9Z" /></symbol>
<symbol id="icon-cloud-sun" viewBox="0 0 24 24"><!-- @license lucide-static v1.52.0 - ISC -->

  <path d="M12 2v2" />
  <path d="m4.93 4.93 1.41 1.41" />
  <path d="M20 12h2" />
  <path d="m19.07 4.93-1.41 1.41" />
  <path d="M15.947 12.65a4 4 0 0 0-5.925-4.128" />
  <path d="M13 22H7a5 5 0 1 1 4.9-6H13a3 3 0 0 1 0 6Z" /></symbol>
<symbol id="icon-cloud-rain" viewBox="0 0 24 24"><!-- @license lucide-static v1.52.0 - ISC -->

  <path d="M4 14.899A7 7 0 1 1 15.71 8h1.79a4.5 4.5 0 0 1 2.5 8.242" />
  <path d="M16 14v6" />
  <path d="M8 14v6" />
  <path d="M12 16v6" /></symbol>
<symbol id="icon-cloud-fog" viewBox="0 0 24 24"><!-- @license lucide-static v1.52.0 - ISC -->

  <path d="M4 14.899A7 7 0 1 1 15.71 8h1.79a4.5 4.5 0 0 1 2.5 8.242" />
  <path d="M16 17H7" />
  <path d="M17 21H9" /></symbol>
<symbol id="icon-cloud-lightning" viewBox="0 0 24 24"><!-- @license lucide-static v1.52.0 - ISC -->

  <path d="M6 16.326A7 7 0 1 1 15.71 8h1.79a4.5 4.5 0 0 1 .5 8.973" />
  <path d="m13 12-3 5h4l-3 5" /></symbol>
<symbol id="icon-cloud-snow" viewBox="0 0 24 24"><!-- @license lucide-static v1.52.0 - ISC -->

  <path d="M4 14.899A7 7 0 1 1 15.71 8h1.79a4.5 4.5 0 0 1 2.5 8.242" />
  <path d="M8 15h.01" />
  <path d="M8 19h.01" />
  <path d="M12 17h.01" />
  <path d="M12 21h.01" />
  <path d="M16 15h.01" />
  <path d="M16 19h.01" /></symbol>
<symbol id="icon-wind" viewBox="0 0 24 24"><!-- @license lucide-static v1.52.0 - ISC -->

  <path d="M12.8 19.6A2 2 0 1 0 14 16H2" />
  <path d="M17.5 8a2.5 2.5 0 1 1 2 4H2" />
  <path d="M9.8 4.4A2 2 0 1 1 11 8H2" /></symbol>
<symbol id="icon-droplet" viewBox="0 0 24 24"><!-- @license lucide-static v1.52.0 - ISC -->

  <path d="M12 22a7 7 0 0 0 7-7c0-2-1-3.9-3-5.5s-3.5-4-4-6.5c-.5 2.5-2 4.9-4 6.5C6 11.1 5 13 5 15a7 7 0 0 0 7 7z" /></symbol>
<symbol id="icon-close" viewBox="0 0 24 24"><!-- @license lucide-static v1.52.0 - ISC -->

  <path d="M18 6 6 18" />
  <path d="m6 6 12 12" /></symbol>
<symbol id="icon-arrow-left" viewBox="0 0 24 24"><!-- @license lucide-static v1.52.0 - ISC -->

  <path d="m12 19-7-7 7-7" />
  <path d="M19 12H5" /></symbol>
<symbol id="icon-arrow-right" viewBox="0 0 24 24"><!-- @license lucide-static v1.52.0 - ISC -->

  <path d="M5 12h14" />
  <path d="m12 5 7 7-7 7" /></symbol>
<symbol id="icon-compass" viewBox="0 0 24 24"><!-- @license lucide-static v1.52.0 - ISC -->

  <circle cx="12" cy="12" r="10" />
  <path d="m16.24 7.76-1.804 5.411a2 2 0 0 1-1.265 1.265L7.76 16.24l1.804-5.411a2 2 0 0 1 1.265-1.265z" /></symbol>
<symbol id="icon-sparkles" viewBox="0 0 24 24"><!-- @license lucide-static v1.52.0 - ISC -->

  <path d="M11.017 2.814a1 1 0 0 1 1.966 0l1.051 5.558a2 2 0 0 0 1.594 1.594l5.558 1.051a1 1 0 0 1 0 1.966l-5.558 1.051a2 2 0 0 0-1.594 1.594l-1.051 5.558a1 1 0 0 1-1.966 0l-1.051-5.558a2 2 0 0 0-1.594-1.594l-5.558-1.051a1 1 0 0 1 0-1.966l5.558-1.051a2 2 0 0 0 1.594-1.594z" />
  <path d="M20 2v4" />
  <path d="M22 4h-4" />
  <circle cx="4" cy="20" r="2" /></symbol>
<symbol id="icon-route" viewBox="0 0 24 24"><!-- @license lucide-static v1.52.0 - ISC -->

  <circle cx="6" cy="19" r="3" />
  <path d="M9 19h8.5a3.5 3.5 0 0 0 0-7h-11a3.5 3.5 0 0 1 0-7H15" />
  <circle cx="18" cy="5" r="3" /></symbol>
<symbol id="icon-check" viewBox="0 0 24 24"><!-- @license lucide-static v1.52.0 - ISC -->

  <path d="M20 6 9 17l-5-5" /></symbol>
<symbol id="icon-map" viewBox="0 0 24 24"><!-- @license lucide-static v1.52.0 - ISC -->

  <path d="M14.106 5.553a2 2 0 0 0 1.788 0l3.659-1.83A1 1 0 0 1 21 4.619v12.764a1 1 0 0 1-.553.894l-4.553 2.277a2 2 0 0 1-1.788 0l-4.212-2.106a2 2 0 0 0-1.788 0l-3.659 1.83A1 1 0 0 1 3 19.381V6.618a1 1 0 0 1 .553-.894l4.553-2.277a2 2 0 0 1 1.788 0z" />
  <path d="M15 5.764v15" />
  <path d="M9 3.236v15" /></symbol>
<symbol id="icon-image" viewBox="0 0 24 24"><!-- @license lucide-static v1.52.0 - ISC -->

  <rect width="18" height="18" x="3" y="3" rx="2" ry="2" />
  <circle cx="9" cy="9" r="2" />
  <path d="m21 15-3.086-3.086a2 2 0 0 0-2.828 0L6 21" /></symbol>
<symbol id="icon-star" viewBox="0 0 24 24"><!-- @license lucide-static v1.52.0 - ISC -->

  <path d="M11.525 2.295a.53.53 0 0 1 .95 0l2.31 4.679a2.123 2.123 0 0 0 1.595 1.16l5.166.756a.53.53 0 0 1 .294.904l-3.736 3.638a2.123 2.123 0 0 0-.611 1.878l.882 5.14a.53.53 0 0 1-.771.56l-4.618-2.428a2.122 2.122 0 0 0-1.973 0L6.396 21.01a.53.53 0 0 1-.77-.56l.881-5.139a2.122 2.122 0 0 0-.611-1.879L2.16 9.795a.53.53 0 0 1 .294-.906l5.165-.755a2.122 2.122 0 0 0 1.597-1.16z" /></symbol>
<symbol id="icon-mail" viewBox="0 0 24 24"><!-- @license lucide-static v1.52.0 - ISC -->

  <path d="m22 7-8.991 5.727a2 2 0 0 1-2.009 0L2 7" />
  <rect x="2" y="4" width="20" height="16" rx="2" /></symbol>
<symbol id="icon-lock" viewBox="0 0 24 24"><!-- @license lucide-static v1.52.0 - ISC -->

  <rect width="18" height="11" x="3" y="11" rx="2" ry="2" />
  <path d="M7 11V7a5 5 0 0 1 10 0v4" /></symbol>
<symbol id="icon-eye" viewBox="0 0 24 24"><!-- @license lucide-static v1.52.0 - ISC -->

  <path d="M2.062 12.348a1 1 0 0 1 0-.696 10.75 10.75 0 0 1 19.876 0 1 1 0 0 1 0 .696 10.75 10.75 0 0 1-19.876 0" />
  <circle cx="12" cy="12" r="3" /></symbol>
<symbol id="icon-eye-off" viewBox="0 0 24 24"><!-- @license lucide-static v1.52.0 - ISC -->

  <path d="M10.733 5.076a10.744 10.744 0 0 1 11.205 6.575 1 1 0 0 1 0 .696 10.747 10.747 0 0 1-1.444 2.49" />
  <path d="M14.084 14.158a3 3 0 0 1-4.242-4.242" />
  <path d="M17.479 17.499a10.75 10.75 0 0 1-15.417-5.151 1 1 0 0 1 0-.696 10.75 10.75 0 0 1 4.446-5.143" />
  <path d="m2 2 20 20" /></symbol>
<symbol id="icon-user" viewBox="0 0 24 24"><!-- @license lucide-static v1.52.0 - ISC -->

  <path d="M19 21v-2a4 4 0 0 0-4-4H9a4 4 0 0 0-4 4v2" />
  <circle cx="12" cy="7" r="4" /></symbol>
<symbol id="icon-phone" viewBox="0 0 24 24"><!-- @license lucide-static v1.52.0 - ISC -->

  <path d="M13.832 16.568a1 1 0 0 0 1.213-.303l.355-.465A2 2 0 0 1 17 15h3a2 2 0 0 1 2 2v3a2 2 0 0 1-2 2A18 18 0 0 1 2 4a2 2 0 0 1 2-2h3a2 2 0 0 1 2 2v3a2 2 0 0 1-.8 1.6l-.468.351a1 1 0 0 0-.292 1.233 14 14 0 0 0 6.392 6.384" /></symbol>
<symbol id="icon-log-in" viewBox="0 0 24 24"><!-- @license lucide-static v1.52.0 - ISC -->

  <path d="m10 17 5-5-5-5" />
  <path d="M15 12H3" />
  <path d="M15 3h4a2 2 0 0 1 2 2v14a2 2 0 0 1-2 2h-4" /></symbol>
<symbol id="icon-log-out" viewBox="0 0 24 24"><!-- @license lucide-static v1.52.0 - ISC -->

  <path d="m16 17 5-5-5-5" />
  <path d="M21 12H9" />
  <path d="M9 21H5a2 2 0 0 1-2-2V5a2 2 0 0 1 2-2h4" /></symbol>
<symbol id="icon-key" viewBox="0 0 24 24"><!-- @license lucide-static v1.52.0 - ISC -->

  <path d="m2 21 9.6-9.6" />
  <path d="m7.5 15.5 2.3 2.3a1 1 0 0 1 0 1.4l-2.1 2.1a1 1 0 0 1-1.4 0L4 19" />
  <circle cx="15.5" cy="7.5" r="5.5" /></symbol>
<symbol id="icon-shield" viewBox="0 0 24 24"><!-- @license lucide-static v1.52.0 - ISC -->

  <path d="M20 13c0 5-3.5 7.5-7.66 8.95a1 1 0 0 1-.67-.01C7.5 20.5 4 18 4 13V6a1 1 0 0 1 1-1c2 0 4.5-1.2 6.24-2.72a1.17 1.17 0 0 1 1.52 0C14.51 3.81 17 5 19 5a1 1 0 0 1 1 1z" />
  <path d="m9 12 2 2 4-4" /></symbol>
<symbol id="icon-sliders" viewBox="0 0 24 24"><!-- @license lucide-static v1.52.0 - ISC -->

  <path d="M10 5H3" />
  <path d="M12 19H3" />
  <path d="M14 3v4" />
  <path d="M16 17v4" />
  <path d="M21 12h-9" />
  <path d="M21 19h-5" />
  <path d="M21 5h-7" />
  <path d="M8 10v4" />
  <path d="M8 12H3" /></symbol>
<symbol id="icon-refresh" viewBox="0 0 24 24"><!-- @license lucide-static v1.52.0 - ISC -->

  <path d="M3 12a9 9 0 0 1 9-9 9.75 9.75 0 0 1 6.74 2.74L21 8" />
  <path d="M21 3v5h-5" />
  <path d="M21 12a9 9 0 0 1-9 9 9.75 9.75 0 0 1-6.74-2.74L3 16" />
  <path d="M8 16H3v5" /></symbol>
</svg>
